<?xml version="1.0" encoding="UTF-8"?>
<svg width="359px" height="161px" viewBox="0 0 359 161" version="1.1" xmlns="http://www.w3.org/2000/svg" xmlns:xlink="http://www.w3.org/1999/xlink">
    <title>Graphic/Logo</title>
    <defs>
        <polygon id="path-1" points="0.23265 1.48933854 154.1655 1.48933854 154.1655 39.5967815 0.23265 39.5967815"></polygon>
        <path d="M308.752915,39.0755818 C311.320165,38.954111 313.813165,39.9348753 315.606415,41.7749329 C317.359165,43.7612055 318.263665,46.3525826 318.119665,48.9979466 C318.130915,49.6187974 318.092665,50.2396482 318.009415,50.856 L315.277915,72.1988695 C314.992165,75.4133468 313.579165,78.4253727 311.286415,80.6995761 C309.097165,82.8388118 306.136165,84.0040317 303.073915,83.9297996 C300.574165,84.0490209 298.141915,83.104248 296.377915,81.3316741 C294.643165,79.3791435 293.758915,76.8147599 293.918665,74.2076366 C293.909665,73.5215516 293.945665,72.8309676 294.022165,72.1471319 L296.654665,50.8042624 C296.938165,47.5875357 298.353415,44.5755097 300.646165,42.3035559 C302.801665,40.1755674 305.724415,39.012597 308.752915,39.0755818 M357.609415,22.7827484 C354.704665,44.8499438 347.324665,66.0938371 335.919415,85.2119913 C335.635915,84.955553 335.395165,84.7328565 335.293915,84.6316309 L330.130165,79.4466273 C331.050415,76.9564758 331.669165,74.3650988 331.970665,71.7287325 L334.495165,51.1034405 C334.661665,49.7695112 334.733665,48.426584 334.708915,47.0836568 C334.816915,42.9176583 333.813415,38.8011478 331.799665,35.1525249 C329.846665,31.7445941 326.926165,28.9935054 323.409415,27.2456756 C319.397665,25.2953944 314.980915,24.3281269 310.521415,24.4271031 C305.456665,24.3461226 300.445915,25.484349 295.912165,27.747305 C291.601165,29.9180332 287.904415,33.1347599 285.163915,37.1050555 C282.328915,41.2305638 280.562665,45.9926691 280.020415,50.9662235 L277.396915,71.5915155 C277.232665,72.9231954 277.160665,74.268372 277.178665,75.6090497 C276.856915,81.8512992 279.205915,87.9338371 283.640665,92.3360288 C288.462415,96.6572401 294.798415,98.8954521 301.264915,98.567031 C306.379165,98.6525105 311.439415,97.5142841 316.027165,95.251328 C316.576165,94.9746446 316.994665,94.5584946 317.514415,94.2570671 L324.813415,101.619547 C311.515915,119.129338 294.832165,133.789064 275.752165,144.725935 C258.386665,134.601119 242.998915,121.417038 230.333665,105.81029 L234.923665,68.5997347 C235.067665,68.2578169 235.272415,68.086858 235.549165,68.086858 L254.224165,68.1318472 C254.633665,68.1318472 254.775415,68.3050555 254.633665,68.6469733 L251.267665,96.083628 C251.191165,96.3895544 251.265415,96.715726 251.470165,96.9564182 C251.674915,97.1993598 251.980915,97.3320779 252.295915,97.3208306 L266.529415,97.3545725 C266.862415,97.3658198 267.179665,97.2331017 267.409165,96.994659 C267.649915,96.7584658 267.814165,96.4547888 267.879415,96.1218688 L276.609415,26.4111262 C276.688165,26.1007008 276.609415,25.7745292 276.402415,25.5315876 C276.197665,25.2931449 275.896165,25.1604268 275.583415,25.1716741 L261.343165,25.1379322 C261.012415,25.1311839 260.697415,25.259403 260.463415,25.4933468 C260.224915,25.7317895 260.060665,26.0377159 259.997665,26.3706359 L256.629415,52.9704917 C256.631665,53.1077087 256.577665,53.2381774 256.480915,53.3326547 C256.386415,53.4316309 256.253665,53.4901168 256.116415,53.4901168 L237.342415,53.4451276 C237.067915,53.4451276 236.926165,53.2741687 236.928415,52.9255025 L240.296665,26.3256467 C240.298915,25.5000952 239.918665,25.0906936 239.160415,25.0884441 L225.030415,25.0547022 C224.686165,25.0524528 224.353165,25.1784225 224.096665,25.4101168 C223.833415,25.6260649 223.680415,25.9477376 223.682665,26.2851565 L216.244165,85.6888767 C204.751165,66.2940389 197.359915,44.7509676 194.527165,22.389093 C197.749165,20.567031 201.076915,18.8934333 204.440665,17.2603259 C204.665665,17.1523518 204.890665,17.0781197 205.115665,16.9633973 C227.311915,6.47866763 251.569165,1.07996539 276.116665,1.1600482 C304.693915,1.19918673 332.773915,8.64939582 357.609415,22.7827484 M191.971165,44.1121211 C192.139915,44.4585379 192.119665,44.8679394 191.912665,45.194111 L168.368665,98.15538 C166.602415,102.303383 164.338915,106.22644 161.634415,109.836822 C159.361915,112.578913 156.349165,114.612424 152.956165,115.698913 C148.030915,117.127319 142.909915,117.759417 137.786665,117.568213 L137.062165,117.565964 C136.652665,117.563714 136.447915,117.152063 136.450147,116.331011 L137.923915,104.777788 C137.984665,104.449367 138.142165,104.147939 138.373915,103.907247 C138.576415,103.68905 138.855415,103.560831 139.152415,103.547334 C142.309165,103.709295 145.472665,103.317889 148.494415,102.386613 C150.571165,101.462085 152.089915,99.6107801 152.582665,97.3905638 C152.661415,97.1948609 152.695165,96.9834117 152.683915,96.7719625 L143.006665,45.0771391 L143.006665,44.7689632 C142.993165,44.4607873 143.105665,44.1616092 143.319415,43.9389128 C143.542165,43.729713 143.841415,43.621739 144.145165,43.6352358 L159.314665,43.6712271 C159.874915,43.6082422 160.381165,44.0108955 160.441915,44.5710108 C160.448665,44.616 160.450915,44.6609892 160.448665,44.7037289 L163.576165,75.2446373 C163.576165,75.5213208 163.661665,75.6540389 163.832665,75.6540389 C164.005915,75.6540389 164.125165,75.5190714 164.192665,75.2468868 L174.891415,44.7397203 C175.087165,44.1098717 175.681165,43.6892228 176.338165,43.7139668 L191.095915,43.7477087 C191.428915,43.7162163 191.757415,43.8511839 191.971165,44.1121211 M117.370165,70.3880548 L117.370165,70.3835559 C117.205915,73.2021283 116.425165,75.9487181 115.081915,78.4298717 C113.902915,81.2731882 111.135415,83.1357404 108.057415,83.1604845 C106.621915,83.2054737 105.217915,82.746584 104.088415,81.860297 C103.021915,80.9965047 102.252415,79.822287 101.881165,78.5018544 C101.494165,77.1251853 101.325415,75.6967787 101.374915,74.2706215 C101.356915,72.9591867 101.428915,71.6500014 101.588665,70.3520634 C101.847415,67.475005 102.657415,64.6744283 103.978165,62.1055458 C104.675665,60.7378745 105.708415,59.5681557 106.981915,58.7111118 C108.237415,57.8833107 109.713415,57.4559135 111.216415,57.4806575 C112.570915,57.4356683 113.898415,57.8585667 114.973915,58.6796193 C115.999915,59.5164182 116.735665,60.6546446 117.079915,61.9323374 C117.511915,63.3022581 117.718915,64.7306647 117.691915,66.1658198 C117.671665,67.5784802 117.563665,68.9888911 117.370165,70.3880548 M137.037415,44.0851276 C136.830415,43.8444355 136.528915,43.7094679 136.211665,43.7184658 L121.971415,43.6847239 C121.642915,43.6802249 121.327915,43.8106936 121.098415,44.0446373 C120.857665,44.2875789 120.693415,44.6002538 120.634915,44.9354232 L120.216415,47.927204 C120.236665,48.093664 120.153415,48.2578745 120.007165,48.3388551 C119.865415,48.4085883 119.732665,48.3366056 119.595415,48.1319048 C117.606415,44.6204989 114.069415,42.8591723 108.979915,42.847925 C104.470915,42.7804412 100.058665,44.1616092 96.386665,46.7822293 C92.716915,49.3601096 89.789665,52.8557693 87.899665,56.9227916 C85.910665,61.0685451 84.677665,65.5359712 84.256915,70.1136208 C83.932915,72.3698284 83.755165,74.6440317 83.723665,76.9204845 C83.703415,78.5805854 83.838415,80.2361875 84.126415,81.8692949 C84.706915,86.307478 86.790415,90.4082422 90.030415,93.4945004 C93.128665,96.3445652 97.210165,97.8854448 101.419915,97.7954665 C106.403665,97.9259351 111.139915,95.6269877 114.123415,91.6319481 C114.330415,91.4249978 114.487915,91.3597635 114.591415,91.4249978 C114.708415,91.528473 114.766915,91.6814362 114.746665,91.8366489 L114.220165,95.7574564 C114.141415,96.0656323 114.220165,96.3918039 114.427165,96.6302466 C114.629665,96.8754376 114.935665,97.0104052 115.252915,96.9969084 L129.472915,97.0306503 C129.803665,97.0373987 130.123165,96.9069301 130.352665,96.6707368 C130.588915,96.4322942 130.753165,96.1286172 130.818415,95.7979466 L137.239915,44.9624167 C137.316415,44.6519913 137.239915,44.3280692 137.037415,44.0851276 M83.905915,25.9477376 L75.173665,95.6607296 C75.110665,95.9914001 74.946415,96.2950771 74.707915,96.5312704 C74.478415,96.769713 74.161165,96.9024311 73.830415,96.8918452 L59.590165,96.857442 C59.275165,96.8709387 58.971415,96.7359712 58.768915,96.4930296 C58.559665,96.2523374 58.483165,95.9284153 58.559665,95.6202394 L67.294165,25.9072473 C67.357165,25.5765768 67.519165,25.2684009 67.759915,25.0322076 C67.991665,24.7982639 68.308915,24.6677952 68.639665,24.6763565 L82.877665,24.710535 C83.192665,24.6992877 83.496415,24.8320058 83.705665,25.0704484 C83.908165,25.3133901 83.984665,25.6395616 83.905915,25.9477376 M39.745165,53.7982927 L39.745165,53.7982927 C37.738165,55.6788407 35.058415,56.6776006 32.308915,56.5651276 L21.994915,56.5403836 C21.580915,56.5403836 21.441415,56.3716741 21.580915,56.0252574 L23.578915,39.7324239 C23.718415,39.3927556 23.925415,39.2217967 24.204415,39.2217967 L34.518415,39.2487902 C36.680665,39.1408161 38.800165,39.8628926 40.444915,41.2688046 C41.929915,42.627478 42.737665,44.5732603 42.652165,46.5842769 C42.744415,49.2926258 41.689165,51.9109964 39.745165,53.7982927 M59.371915,44.1503619 C59.648665,38.8371391 57.652915,33.6566345 53.884165,29.902287 C49.813915,26.2356683 44.456665,24.3303764 38.986915,24.6025609 L10.096915,24.5346336 C9.76616497,24.5260793 9.44891497,24.6542985 9.21941497,24.8904917 C8.97641497,25.1266849 8.81216497,25.4326114 8.74916497,25.7655314 L0.0304149732,95.4785234 C-0.0483350268,95.7844499 0.0281649732,96.1106215 0.232914973,96.3513136 C0.435414973,96.5965047 0.741414973,96.7314722 1.05866497,96.715726 L15.296665,96.7499044 C15.627415,96.7584658 15.944665,96.6279971 16.174165,96.3895544 C16.412665,96.1533612 16.576915,95.8496842 16.639915,95.5190137 L19.695415,70.6647383 C19.832665,70.320571 20.037415,70.1496121 20.309665,70.1496121 L32.486665,70.1811045 C36.923665,70.2575862 41.322415,69.3173122 45.336415,67.4255169 C49.087165,65.6394463 52.309165,62.9108522 54.689665,59.5074203 C57.139915,55.9870166 58.674415,51.9154953 59.158165,47.65277 C59.299915,46.0106647 59.369665,44.8409459 59.371915,44.1503619" id="path-3"></path>
    </defs>
    <g id="Designs" stroke="none" stroke-width="1" fill="none" fill-rule="evenodd">
        <g id="Group-11" transform="translate(0.000000, -2.000000)">
            <g id="Group-3" transform="translate(204.750000, 0.760317)">
                <mask id="mask-2" fill="white">
                    <use xlink:href="#path-1"></use>
                </mask>
                <g id="Clip-2"></g>
                <path d="M153.39015,34.0361182 L152.7579,39.5967815 C105.8229,13.1004009 48.93615,11.0691391 0.23265,34.1485912 L0.23265,33.9236453 C20.83365,18.6610642 44.70615,8.40128046 69.9624,3.95634895 C72.1269,3.58743764 74.21715,3.36024225 76.34565,3.05656525 C102.4929,-0.569563086 129.13065,2.11854074 154.02465,10.8936813 C154.33965,18.6138255 154.12815,26.345217 153.39015,34.0361182" id="Fill-1" fill="#009FFD" mask="url(#mask-2)"></path>
            </g>
            <path d="M204.96555,34.6931853 C204.74055,34.8596453 204.51555,35.039602 204.29055,35.2083115 C204.51555,35.1003374 204.74055,35.010359 204.9768,34.902385 L204.96555,34.6931853 Z" id="Fill-4" fill="#BE33FF"></path>
            <path d="M281.0952,3.80383562 C278.9667,4.1030137 276.87645,4.33020908 274.71195,4.70361932 C249.4557,9.14855083 225.5832,19.4083345 204.9822,34.6709156 C204.24645,27.0699928 204.0327,19.4285797 204.3477,11.7984138 C228.9357,3.10425379 255.24045,0.364412401 281.0952,3.80383562" id="Fill-6" fill="#BE33FF"></path>
            <g id="Colour/#150578" transform="translate(-0.000715, 17.995674)">
                <mask id="mask-4" fill="white">
                    <use xlink:href="#path-3"></use>
                </mask>
                <g id="Mask"></g>
                <g id="Group" mask="url(#mask-4)">
                    <g transform="translate(-4.499285, -2.249459)" id="Colour/#150578">
                        <rect id="Rectangle-2" fill="#150578" x="0" y="0" width="371.25" height="150.713771"></rect>
                    </g>
                </g>
            </g>
        </g>
    </g>
</svg>